<svg xmlns="http://www.w3.org/2000/svg" width="290" height="130"><path fill="#76d1f2" d="M37.64 91.218h20.867c1.692 0 3.102 1.41 3.102 3.102s-1.41 3.102-3.102 3.102H37.64c-1.692 0-3.102-1.41-3.102-3.102 0-1.41 1.41-3.102 3.102-3.102z"/><path fill="#d91378" d="M63.865 67.813c.282-.282.282-.282.282-.564s0-.282-.282-.564c-.282 0-.564-.282-.846-.564-1.41-.564-2.82-1.128-3.948-1.41-4.512-.846-8.742 1.128-10.998 5.076-1.974-3.948-6.485-5.922-10.715-5.076-1.41.282-2.82.846-3.948 1.41-.282.282-.564.564-1.128.846L32 67.53c0 .282 0 .282.282.564l14.1 15.227v.846c0 .282.281.846.845.846h2.256c.282 0 .564-.282.846-.846v-.846z"/><path fill="#fde471" d="M60.763 44.69c0 7.05-5.64 12.69-12.69 12.69s-12.69-5.64-12.69-12.69S41.024 32 48.074 32s12.69 5.64 12.69 12.69z"/><path fill="#d91378" d="M104.604 74.174v7.332h-22.56V48.513h7.332v25.661zm3.102 7.05v-32.71h7.331v32.992zm25.379.564l-15.228-33.275h7.614l7.614 16.92 7.613-16.92h7.614zm34.966-.564l-5.075-7.332h-4.512v7.332h-7.332v-32.71h10.434c7.05-.283 12.971 5.075 13.535 12.407v.564c0 3.948-1.974 7.896-5.076 10.151l6.768 9.87zm-6.485-25.661h-3.384v11.28h3.384c3.102.282 5.921-1.974 6.203-5.076.282-3.102-1.973-5.922-5.075-6.204zm18.611 25.661v-32.71h19.457v7.331h-12.407v4.794h10.715v7.05h-10.715v6.485h12.407v7.332zm32.147 1.128c-3.102 0-5.922-.564-8.742-1.974v-7.896c2.538 1.692 5.64 2.538 8.742 2.82 1.974 0 4.23-.846 4.23-3.102 0-5.075-13.254-5.64-13.254-15.227.282-5.358 5.076-9.306 10.152-9.024 2.82 0 5.64.564 8.177 1.41v7.614c-2.537-1.41-5.357-1.974-8.177-1.974-1.128 0-2.82.564-2.82 1.974 0 1.692 1.41 2.538 2.82 3.384 4.794 2.82 10.433 5.64 10.433 11.843.282 6.204-5.64 10.152-11.561 10.152zm31.865-1.41c3.383 1.974 7.05 2.82 10.997 2.82h.564v7.05c-5.64.282-11.28-1.128-16.355-4.23-2.538-1.692-5.64-2.538-8.742-2.538h-.846v-7.05h1.974c-3.384-3.384-5.076-7.895-5.076-12.407-.564-8.46 5.922-15.792 14.382-16.356 8.46-.564 15.791 5.922 16.355 14.382v2.256c.564 7.613-5.076 14.663-13.253 16.073zm-1.974-26.225c-5.358 0-8.178 4.794-8.178 9.588s3.102 9.587 8.178 9.587c5.075 0 8.177-4.793 8.177-9.587s-2.82-9.588-8.177-9.588z"/></svg>